<?xml version="1.0" standalone="no"?><!DOCTYPE svg PUBLIC "-//W3C//DTD SVG 1.1//EN" "http://www.w3.org/Graphics/SVG/1.1/DTD/svg11.dtd"><svg t="1642554528575" class="icon" viewBox="0 0 1024 1024" version="1.1" xmlns="http://www.w3.org/2000/svg" p-id="5245" xmlns:xlink="http://www.w3.org/1999/xlink" width="200" height="200"><defs><style type="text/css"></style></defs><path d="M958.145721 915.770428c-7.946995 0.03-15.98499 0.723-23.840985-0.12-28.837982-3.129998-49.849969 29.619981-59.843963 64.14796-8.999994 31.094981-43.165973 46.989971-73.929953 43.798972-35.520978-3.642998-59.030963-23.961985-68.091958-56.079965-5.448997-19.416988-21.914986-34.467978-40.035975-34.347978-125.014922 0.723-236.212852 0.362-361.226774 0-14.389991-0.03-29.740981 13.756991-33.955979 30.704981-8.999994 36.362977-39.914975 59.451963-74.141953 60.023962-35.429978 0.602-66.224959-21.884986-76.549953-59.632963-4.333997-15.80399-11.649993-49.608969-26.759983-48.765969-19.446988 1.083999-39.012976 0.542-58.519963 0.211-21.311987-0.391-30.733981-8.939994-30.733981-29.168982 0.15-205.688871 0.452-411.347743 0.993999-617.035614 0.06-21.252987 8.879994-28.416982 33.382979-28.446983 100.450937-0.12 200.901874-0.06 301.353812-0.06h21.010987c0.632-1.715999 1.294999-3.461998 1.926999-5.207996-23.329985-12.251992-46.658971-24.502985-69.957957-36.784977-38.680976-20.409987-77.422952-40.757975-116.043927-61.257962-15.65299-8.307995-22.155986-20.980987-13.304992-36.694977 8.939994-15.89399 23.719985-16.856989 39.162976-8.729995 90.697943 47.83297 181.425887 95.60494 271.79283 143.94991 23.148986 12.401992 64.809959 4.966997 79.70995-15.98499 46.207971-65.139959 92.384942-130.281919 138.591914-195.453878 1.624999-2.286999 3.189998-4.664997 4.875996-6.922995C737.194859 0.21 752.15585-4.575997 765.761841 5.869996c15.74399 12.070992 13.033992 26.399984 2.919999 40.757975-18.753988 26.579983-37.506977 53.129967-56.230965 79.71095-25.947984 36.844977-51.865968 73.719954-80.67395 114.659928h26.910983c99.759938 0 199.487875-0.03 299.216813 0.03 30.462981 0.03 35.159978 4.635997 35.189978 34.255979 0.3 202.166874 0.571 404.333747 0.752 606.499621 0.03 28.898982-5.297997 33.805979-35.700978 33.985979z m-149.909906 60.475962c15.95499-1.053999 23.539985-43.316973 28.386982-59.301963h-60.324962c5.929996 17.579989 14.147991 60.505962 31.93798 59.301963z m-587.896633 0.03c17.669989 1.083999 26.007984-41.631974 31.275981-59.180963h-59.421963c4.033997 16.52599 12.341992 58.217964 28.145982 59.179963z m712.881555-675.253578H90.357264v571.942642h842.863473V301.022812zM150.562226 417.879739c0.06-27.874983 13.515992-55.117966 41.570974-55.147966 214.117866-0.03 411.196743-1.564999 625.314609-1.504999 28.475982 0 55.477965 29.078982 55.567965 56.652965 0.362 132.991917-0.21 235.339853 0 368.33077 0.06 28.416982-25.706984 56.621965-55.567965 56.652964-106.742933 0.06-198.945876 0-305.658809 0-106.711933 0-198.915876 0.06-305.657809 0-31.065981-0.03-55.599965-26.038984-55.568965-56.652964 0.15-132.329917-0.24-236.001852 0-368.33077z m671.18958 364.206772c0-125.736921-4.303997-241.119849-4.303997-364.206772H206.130191c0 125.013922-0.723 240.33585-0.722999 364.206772h616.343614zM379.580083 491.209693c1.745999-0.783 3.912998-0.632 11.197993-1.685999 4.244997 4.153997 14.959991 9.873994 16.10499 17.037989 1.293999 8.367995-3.190998 22.967986-9.662994 26.249984-39.553975 20.076987-80.19195 38.168976-120.919925 55.899965-12.402992 5.386997-26.039984 1.323999-29.199981-11.920992-2.076999-8.669995 1.655999-25.135984 7.886995-28.265983 40.757975-20.619987 82.870948-38.591976 124.592922-57.314964z m12.431992 134.195916c7.705995-0.271 17.669989 10.384994 23.239985 18.512989 4.453997 6.471996 2.587998 16.826989 5.718997 24.652984 5.929996 14.900991 17.097989 29.079982 33.593979 25.586984 12.190992-2.557998 23.329985-14.749991 32.47998-24.863984 4.514997-4.996997 3.762998-14.869991 4.846997-22.606986 2.046999-14.569991 10.655993-23.539985 25.044984-23.178986 13.153992 0.331 21.702986 8.277995 23.389985 22.516986 1.082999 8.999994 1.323999 20.167987 6.711996 26.158984 8.609995 9.571994 21.010987 21.130987 32.11998 21.492986 10.052994 0.33 22.274986-11.829993 30.191981-21.221986 5.267997-6.231996 4.966997-17.248989 6.621996-26.249984 2.679998-14.357991 10.987993-23.087986 25.857984-21.943986 14.779991 1.143999 22.546986 10.655993 21.974986 25.496984-1.414999 37.656976-16.37599 68.270957-51.655968 85.068947-32.870979 15.68299-63.57596 8.939994-90.486943-15.171991-1.444999-1.293999-3.190998-2.227999-4.996997-3.461998-8.187995 5.689996-15.77399 12.281992-24.472985 16.82699-28.446982 14.839991-56.923964 13.606991-83.172948-4.634997-28.957982-20.168987-41.871974-49.548969-39.282975-83.714948 0.541-7.404995 14.267991-18.993988 22.274986-19.264988z m209.993869-135.941915c6.982996-12.221992 19.385988-15.56299 30.97498-8.969994 46.025971 26.218984 91.540943 53.339967 136.754915 80.853949 5.417997 3.280998 7.946995 11.167993 9.842994 13.997991 0.512 22.365986-18.000989 34.526978-35.038978 24.923985-45.544972-25.676984-90.336944-52.708967-135.068916-79.82995-11.799993-7.164996-14.297991-19.055988-7.464995-30.975981z" fill="#ffffff" p-id="5246"></path></svg>