<?xml version="1.0" encoding="UTF-8"?>
<svg width="128px" height="128px" viewBox="0 0 128 128" version="1.1" xmlns="http://www.w3.org/2000/svg" xmlns:xlink="http://www.w3.org/1999/xlink">
    <title>BILIIBILI</title>
    <g id="BILIIBILI" stroke="none" stroke-width="1" fill="none" fill-rule="evenodd">
        <rect id="矩形" fill="#01AFFD" x="0" y="0" width="128" height="128"></rect>
        <path d="M50.7180737,34.294041 L60.033,42.9996278 L67.757,42.9996278 L76.7186885,34.3249376 C77.1155172,33.9408397 77.7485808,33.9511115 78.1327394,34.3478813 L78.8282933,35.0663552 C79.2124372,35.4631573 79.2021756,36.0962392 78.8053734,36.480383 L72.07,42.9996278 L87,43 C91.9705627,43 96,47.0294373 96,52 L96,82 C96,86.9705627 91.9705627,91 87,91 L83.2340371,91 C83.0309505,93.5013041 81.8942221,94.7519562 79.8238517,94.7519562 C77.8248735,94.7519562 76.6962582,93.5860689 76.4380058,91.2542943 L76.4136664,91 L51.2340371,91 C51.0309505,93.5013041 49.8942221,94.7519562 47.8238517,94.7519562 C45.8248735,94.7519562 44.6962582,93.5860689 44.4380058,91.2542943 L44.4136664,91 L41,91 C36.0294373,91 32,86.9705627 32,82 L32,52 C32,47.0294373 36.0294373,43 41,43 L55.639,42.9996278 L48.6696334,36.4858193 C48.2661401,36.1087097 48.2447519,35.4759061 48.6218614,35.0724128 L49.3046787,34.3418236 C49.6817768,33.9383196 50.3145804,33.9169314 50.7180737,34.294041 Z M87,49 L41,49 C39.4023191,49 38.0963391,50.24892 38.0050927,51.8237272 L38,52 L38,82 C38,83.5976809 39.24892,84.9036609 40.8237272,84.9949073 L41,85 L87,85 C88.5976809,85 89.9036609,83.75108 89.9949073,82.1762728 L90,82 L90,52 C90,50.4023191 88.75108,49.0963391 87.1762728,49.0050927 L87,49 Z M65.0554495,72.1821896 L65.1118665,72.2948131 L65.245867,72.6069401 C65.9558215,74.2606352 67.871938,75.0256881 69.5256331,74.3157336 C70.1249646,74.0584322 70.6317096,73.6279282 70.9822784,73.0818285 L71.0932631,72.895593 L72.8444168,73.8617506 C72.2794582,74.8857341 71.3892717,75.6921681 70.3146245,76.1535292 C68.2077707,77.0580311 65.8369702,76.4789534 64.3683693,74.8819065 L64.265,74.764 L64.1746707,74.900332 C63.6620773,75.6307534 62.939358,76.1941119 62.0974904,76.5114953 L61.8650044,76.5918966 C59.5849179,77.31074 57.1582467,76.1034695 56.3402934,73.8838956 L56.2704146,73.6793529 L58.1778641,73.0779908 C58.5863676,74.3737156 59.9679175,75.0929506 61.2636423,74.6844471 C61.8535743,74.4984591 62.3495227,74.0978936 62.6558895,73.5656703 L62.7420165,73.4021364 L63.2913108,72.2568587 C63.6441295,71.5212322 64.6638836,71.5053427 65.0554495,72.1821896 Z M72.3232746,58.0533106 L85.60418,60.5348452 L84.4853703,65.1559517 L71.7273755,62.3978462 L72.3232746,58.0533106 Z M57.0082809,58.0533106 L57.60418,62.3978462 L44.8461853,65.1559517 L43.7273755,60.5348452 L57.0082809,58.0533106 Z" id="1" fill="#FFFFFF" fill-rule="nonzero"></path>
    </g>
</svg>