<?xml version="1.0" standalone="no"?><!DOCTYPE svg PUBLIC "-//W3C//DTD SVG 1.1//EN" "http://www.w3.org/Graphics/SVG/1.1/DTD/svg11.dtd"><svg t="1642554584998" class="icon" viewBox="0 0 1024 1024" version="1.1" xmlns="http://www.w3.org/2000/svg" p-id="10435" xmlns:xlink="http://www.w3.org/1999/xlink" width="200" height="200"><defs><style type="text/css"></style></defs><path d="M603.97 105.21c22.1-6.37 45.78-6.05 68.1-0.92 25.63 6.09 49.88 17.86 70.75 33.9 7.62 5.79 14.5 12.99 18 22.05 5.42 13.4 3.97 29.42-4.03 41.49-6.98 10.84-18.85 18.39-31.64 20.01-10.22 1.4-20.93-0.77-29.71-6.2-4.95-2.91-8.72-7.4-13.69-10.28-13.33-8.46-28.68-15.12-44.73-14.74-11.3 0.13-21.24 6.75-28.9 14.53-7.17 7.4-10.82 18.31-8.45 28.46 5.51 20.74 10.99 41.48 16.49 62.22 39.54 2.03 79.06 12.49 113.05 33.13 33.04 20.44 62.89 46.36 86.56 77.25 20.09 26.18 35.32 56.08 44.64 87.74 10.09 34.12 13.36 70.1 10.73 105.54-2.19 29.24-7.94 58.31-17.86 85.94-25.65 67.28-73.16 126.27-134.31 164.5-44.85 28.33-96.36 45.42-148.89 51.94-36.26 4.53-73.21 4.55-109.29-1.63-74.14-12.25-143.62-49.2-196.35-102.57-52.4-52.5-88.87-120.64-103.62-193.33-10.88-53.01-10.39-108.36 1.68-161.13 14.75-65.07 47.35-125.94 93.18-174.41 37.38-39.8 83.55-71.29 134.23-91.62 5.22-1.99 10.36-4.35 15.92-5.23 11.87-2.08 24.55 0.73 34.27 7.89 13.16 9.29 20.4 26.14 18.21 42.08-1.81 16.27-13.36 30.94-28.75 36.51-51.2 19.14-96.6 53.34-129.28 97.13-29.21 38.86-48.27 85.28-54.66 133.49-6.45 47.72-0.71 97 16.39 142 24.7 65.79 73.81 122.4 136.42 154.62 37.7 19.53 80.14 29.73 122.59 29.44 34.92-0.45 69.95-6.06 102.77-18.2 28.86-10.72 55.91-26.55 78.91-47.07 21.44-19 39.28-41.96 52.89-67.15 6.82-12.85 13.12-26.08 16.97-40.15 11.36-40.22 13.33-83.81 1.18-124.09-10.05-33.78-30.73-63.89-57.14-87.02-11.68-10.22-24.16-19.59-37.54-27.47-11.82-6.64-24.73-11.16-37.9-14.25 9.18 35.9 19 71.65 28.31 107.52 1.58 8.6 3.16 17.2 4.64 25.82 1.36 37.01-11.62 74.29-35.49 102.6-22.24 26.68-53.82 45.45-87.98 51.9-36.82 7.34-76.41 0.41-108.03-20-30.19-19.14-52.49-49.45-64.25-83-6.66-18.77-9.98-38.62-10.64-58.5-2.02-43.25 9.29-87.44 34.03-123.21 29.07-42.69 74.9-72.04 124.04-86.36-3.62-13.84-7.32-27.66-10.98-41.5-9.49-29.87-7.47-63.41 6.69-91.49 7.64-15.67 19-29.32 32.14-40.67 14.63-12.51 31.71-22.39 50.33-27.51M486.64 430.56c-13.18 13.84-22.42 31.34-26.4 50.02-3.58 16.96-3.6 34.64-0.38 51.65 3.93 18.79 13.63 37.17 29.71 48.26 12.48 8.86 28.73 11.55 43.62 8.64 27.55-4.84 50.03-30.19 50.8-58.24-1.05-6.95-2.2-13.9-4.16-20.66-10.29-38.92-20.67-77.81-30.9-116.75-23.28 7.18-45.44 19.28-62.29 37.08z" fill="#ffffff" p-id="10436"></path></svg>